<svg width="180" height="65" viewBox="0 0 180 65" fill="none" xmlns="http://www.w3.org/2000/svg">
<rect width="180" height="65" fill="#CB6D79"/>
<path d="M61.344 27.984V30.024H56.472V32.568H61.344V34.68H64.512V21.96H61.344V25.464H57.384C57.48 24.816 57.528 24.144 57.528 23.448H47.4V25.992H54.072C53.664 28.992 51.24 31.368 46.2 32.712L47.424 35.208C52.296 33.84 55.392 31.464 56.76 27.984H61.344ZM57.216 41.496C54.48 41.496 52.872 40.8 52.872 39.456C52.872 38.112 54.48 37.416 57.216 37.416C59.928 37.416 61.536 38.112 61.536 39.456C61.536 40.8 59.928 41.496 57.216 41.496ZM57.216 34.968C52.704 34.968 49.752 36.696 49.752 39.456C49.752 42.216 52.704 43.944 57.216 43.944C61.704 43.944 64.656 42.216 64.656 39.456C64.656 36.696 61.704 34.968 57.216 34.968ZM71.6861 26.712H74.5181V36.072H71.6861V26.712ZM68.7341 38.544H77.4461V24.216H68.7341V38.544ZM84.0701 21.936V30.384H82.2221V22.296H79.2701V43.056H82.2221V32.928H84.0701V44.04H87.0701V21.936H84.0701ZM96.5723 36.96C95.0843 36.96 93.9803 35.952 93.9803 34.272C93.9803 32.592 95.0843 31.56 96.5723 31.56C98.0603 31.56 99.1403 32.592 99.1403 34.248C99.1403 35.952 98.0603 36.96 96.5723 36.96ZM96.5723 28.992C93.3563 28.992 90.9563 31.176 90.9563 34.248C90.9563 37.368 93.3563 39.552 96.5723 39.552C99.7643 39.552 102.14 37.368 102.14 34.248C102.14 31.176 99.7643 28.992 96.5723 28.992ZM98.1323 22.344H94.9643V25.224H90.0683V27.744H102.932V25.224H98.1323V22.344ZM110.708 30.6H107.54V21.96H104.372V44.064H107.54V33.216H110.708V30.6ZM113.49 24.24V26.76H120.858C120.402 31.656 117.954 35.112 112.314 37.824L113.97 40.32C121.818 36.528 124.098 31.008 124.098 24.24H113.49ZM127.482 21.936V44.04H130.674V21.936H127.482Z" fill="white"/>
</svg>
